# xmcd
#
# Track frame offsets:
#	150
#	27898
#	43902
#	63003
#	76966
#	97375
#	116389
#	141989
#	157263
#	179315
#	195388
#	216227
#	233716
#	257666
#
# Disc length: 3713
#
# Revision: 3
# Processed by: cddbd v1.5.1PL0 Copyright (c) Steve Scherf et al.
# Submitted via: cddb2pg 0.002
# Normalized: r2:DSETVAR1
#
DISCID=c40e7f0e
DTITLE=Various Artist - Real Steppin' Vol #3
DYEAR=1900
DGENRE=
TTITLE0=Amel Larrieux - Get Up (remix)
TTITLE1=Brian Culbertson - Gettin' Over You
TTITLE2=Kevon Edmonds - Love Will Be Waiting
TTITLE3=Chris Gains - Lost In You
TTITLE4=Brecker Brothers - When It Was
TTITLE5=Smone -N- Function - Seven Thirty
TTITLE6=Jazz Masters - Good Lovin'
TTITLE7=Richmond Extension - Everything's Comin' Up Love
TTITLE8=Tower Of Power - Somedays Were Meant For Rain
TTITLE9=Case - Think Of You
TTITLE10=Paul Hardcastle - Money
TTITLE11=Victor Fields - Black Orpheus
TTITLE12=Braxton Brothers - Cand We Try Again
TTITLE13=Paul Russo - I Can Show You Love
EXTD=
EXTT0=
EXTT1=
EXTT2=
EXTT3=
EXTT4=
EXTT5=
EXTT6=
EXTT7=
EXTT8=
EXTT9=
EXTT10=
EXTT11=
EXTT12=
EXTT13=
PLAYORDER=
